<?xml version="1.0" encoding="UTF-8" standalone="no"?><svg xmlns="http://www.w3.org/2000/svg" xmlns:xlink="http://www.w3.org/1999/xlink" contentScriptType="application/ecmascript" contentStyleType="text/css" height="467px" preserveAspectRatio="none" style="width:389px;height:467px;" version="1.1" viewBox="0 0 389 467" width="389px" zoomAndPan="magnify"><defs><filter height="300%" id="f1p745t610q9nw" width="300%" x="-1" y="-1"><feGaussianBlur result="blurOut" stdDeviation="2.0"/><feColorMatrix in="blurOut" result="blurOut2" type="matrix" values="0 0 0 0 0 0 0 0 0 0 0 0 0 0 0 0 0 0 .4 0"/><feOffset dx="4.0" dy="4.0" in="blurOut2" result="blurOut3"/><feBlend in="SourceGraphic" in2="blurOut3" mode="normal"/></filter></defs><g><!--cluster test.foo--><polygon fill="#FFFFFF" filter="url(#f1p745t610q9nw)" points="36.9021,63.5,97.9021,63.5,104.9021,85.9883,212.9021,85.9883,212.9021,339,36.9021,339,36.9021,63.5" style="stroke: #000000; stroke-width: 2.0;"/><line style="stroke: #000000; stroke-width: 2.0;" x1="36.9021" x2="104.9021" y1="85.9883" y2="85.9883"/><text fill="#000000" font-family="sans-serif" font-size="14" font-weight="bold" lengthAdjust="spacingAndGlyphs" textLength="55" x="40.9021" y="79.0352">test.foo</text><!--cluster test.bla--><polygon fill="#FFFFFF" filter="url(#f1p745t610q9nw)" points="231.9021,57,290.9021,57,297.9021,79.4883,382.9021,79.4883,382.9021,460,231.9021,460,231.9021,57" style="stroke: #000000; stroke-width: 2.0;"/><line style="stroke: #000000; stroke-width: 2.0;" x1="231.9021" x2="297.9021" y1="79.4883" y2="79.4883"/><text fill="#000000" font-family="sans-serif" font-size="14" font-weight="bold" lengthAdjust="spacingAndGlyphs" textLength="53" x="235.9021" y="72.5352">test.bla</text><!--class test.foo.Foo--><rect fill="#FEFECE" filter="url(#f1p745t610q9nw)" height="112.7754" id="test.foo.Foo" style="stroke: #A80036; stroke-width: 1.5;" width="159" x="45.4021" y="218"/><ellipse cx="110.6521" cy="234" fill="#ADD1B2" rx="11" ry="11" style="stroke: #A80036; stroke-width: 1.0;"/><path d="M113.6252,239.6431 Q113.0442,239.9419 112.405,240.0913 Q111.7659,240.2407 111.0603,240.2407 Q108.5535,240.2407 107.2336,238.5889 Q105.9138,236.937 105.9138,233.8159 Q105.9138,230.6865 107.2336,229.0347 Q108.5535,227.3828 111.0603,227.3828 Q111.7659,227.3828 112.4133,227.5322 Q113.0608,227.6816 113.6252,227.9805 L113.6252,230.7031 Q112.9944,230.1221 112.4009,229.8523 Q111.8074,229.5825 111.1765,229.5825 Q109.8318,229.5825 109.147,230.6492 Q108.4622,231.7158 108.4622,233.8159 Q108.4622,235.9077 109.147,236.9744 Q109.8318,238.041 111.1765,238.041 Q111.8074,238.041 112.4009,237.7712 Q112.9944,237.5015 113.6252,236.9204 Z "/><text fill="#000000" font-family="sans-serif" font-size="12" lengthAdjust="spacingAndGlyphs" textLength="20" x="131.1521" y="238.5352">Foo</text><line style="stroke: #A80036; stroke-width: 1.5;" x1="46.4021" x2="203.4021" y1="250" y2="250"/><rect fill="none" height="6" style="stroke: #C82930; stroke-width: 1.0;" width="6" x="53.4021" y="258.9775"/><text fill="#000000" font-family="sans-serif" font-size="11" lengthAdjust="spacingAndGlyphs" textLength="70" x="65.4021" y="264.6348">blas: List[Bla]</text><rect fill="none" height="6" style="stroke: #C82930; stroke-width: 1.0;" width="6" x="53.4021" y="271.9326"/><text fill="#000000" font-family="sans-serif" font-size="11" lengthAdjust="spacingAndGlyphs" textLength="133" x="65.4021" y="277.5898">foos: Map[String, List[A]]</text><line style="stroke: #A80036; stroke-width: 1.5;" x1="46.4021" x2="203.4021" y1="283.9102" y2="283.9102"/><text fill="#000000" font-family="sans-serif" font-size="11" lengthAdjust="spacingAndGlyphs" textLength="66" x="51.4021" y="298.5449">test(): String</text><text fill="#000000" font-family="sans-serif" font-size="11" lengthAdjust="spacingAndGlyphs" textLength="76" x="51.4021" y="311.5">nothing(a: Int)</text><text fill="#000000" font-family="sans-serif" font-size="11" lengthAdjust="spacingAndGlyphs" textLength="127" x="51.4021" y="324.4551">nothing(a: Int, b: String)</text><!--class test.foo.Example--><rect fill="#FEFECE" filter="url(#f1p745t610q9nw)" height="60.9551" id="test.foo.Example" style="stroke: #A80036; stroke-width: 1.5;" width="88" x="80.9021" y="90.5"/><ellipse cx="98.6021" cy="106.5" fill="#ADD1B2" rx="11" ry="11" style="stroke: #A80036; stroke-width: 1.0;"/><path d="M101.5752,112.1431 Q100.9942,112.4419 100.355,112.5913 Q99.7159,112.7407 99.0103,112.7407 Q96.5035,112.7407 95.1836,111.0889 Q93.8638,109.437 93.8638,106.3159 Q93.8638,103.1865 95.1836,101.5347 Q96.5035,99.8828 99.0103,99.8828 Q99.7159,99.8828 100.3633,100.0322 Q101.0108,100.1816 101.5752,100.4805 L101.5752,103.2031 Q100.9444,102.6221 100.3509,102.3523 Q99.7574,102.0825 99.1265,102.0825 Q97.7818,102.0825 97.097,103.1492 Q96.4122,104.2158 96.4122,106.3159 Q96.4122,108.4077 97.097,109.4744 Q97.7818,110.541 99.1265,110.541 Q99.7574,110.541 100.3509,110.2712 Q100.9444,110.0015 101.5752,109.4204 Z "/><text fill="#000000" font-family="sans-serif" font-size="12" lengthAdjust="spacingAndGlyphs" textLength="50" x="113.2021" y="111.0352">Example</text><line style="stroke: #A80036; stroke-width: 1.5;" x1="81.9021" x2="167.9021" y1="122.5" y2="122.5"/><line style="stroke: #A80036; stroke-width: 1.5;" x1="81.9021" x2="167.9021" y1="130.5" y2="130.5"/><text fill="#000000" font-family="sans-serif" font-size="11" lengthAdjust="spacingAndGlyphs" textLength="76" x="86.9021" y="145.1348">nothing(a: Int)</text><!--class test.bla.SomeTrait--><rect fill="#FEFECE" filter="url(#f1p745t610q9nw)" height="73.9102" id="test.bla.SomeTrait" style="stroke: #A80036; stroke-width: 1.5;" width="100" x="239.9021" y="84"/><ellipse cx="259.4021" cy="100" fill="#ADD1B2" rx="11" ry="11" style="stroke: #A80036; stroke-width: 1.0;"/><path d="M262.3752,105.6431 Q261.7942,105.9419 261.155,106.0913 Q260.5159,106.2407 259.8103,106.2407 Q257.3035,106.2407 255.9836,104.5889 Q254.6638,102.937 254.6638,99.8159 Q254.6638,96.6865 255.9836,95.0347 Q257.3035,93.3828 259.8103,93.3828 Q260.5159,93.3828 261.1633,93.5322 Q261.8108,93.6816 262.3752,93.9805 L262.3752,96.7031 Q261.7444,96.1221 261.1509,95.8523 Q260.5574,95.5825 259.9265,95.5825 Q258.5818,95.5825 257.897,96.6492 Q257.2122,97.7158 257.2122,99.8159 Q257.2122,101.9077 257.897,102.9744 Q258.5818,104.041 259.9265,104.041 Q260.5574,104.041 261.1509,103.7712 Q261.7444,103.5015 262.3752,102.9204 Z "/><text fill="#000000" font-family="sans-serif" font-size="12" lengthAdjust="spacingAndGlyphs" textLength="58" x="274.4021" y="104.5352">SomeTrait</text><line style="stroke: #A80036; stroke-width: 1.5;" x1="240.9021" x2="338.9021" y1="116" y2="116"/><rect fill="none" height="6" style="stroke: #C82930; stroke-width: 1.0;" width="6" x="247.9021" y="124.9775"/><text fill="#000000" font-family="sans-serif" font-size="11" lengthAdjust="spacingAndGlyphs" textLength="36" x="259.9021" y="130.6348">bla: Int</text><line style="stroke: #A80036; stroke-width: 1.5;" x1="240.9021" x2="338.9021" y1="136.9551" y2="136.9551"/><text fill="#000000" font-family="sans-serif" font-size="11" lengthAdjust="spacingAndGlyphs" textLength="88" x="245.9021" y="151.5898">blubber(): String</text><!--class test.bla.Bla--><rect fill="#FEFECE" filter="url(#f1p745t610q9nw)" height="60.9551" id="test.bla.Bla" style="stroke: #A80036; stroke-width: 1.5;" width="92" x="239.9021" y="391"/><ellipse cx="274.2521" cy="407" fill="#ADD1B2" rx="11" ry="11" style="stroke: #A80036; stroke-width: 1.0;"/><path d="M277.2252,412.6431 Q276.6442,412.9419 276.005,413.0913 Q275.3659,413.2407 274.6603,413.2407 Q272.1535,413.2407 270.8336,411.5889 Q269.5138,409.937 269.5138,406.8159 Q269.5138,403.6865 270.8336,402.0347 Q272.1535,400.3828 274.6603,400.3828 Q275.3659,400.3828 276.0133,400.5322 Q276.6608,400.6816 277.2252,400.9805 L277.2252,403.7031 Q276.5944,403.1221 276.0009,402.8523 Q275.4074,402.5825 274.7765,402.5825 Q273.4318,402.5825 272.747,403.6492 Q272.0622,404.7158 272.0622,406.8159 Q272.0622,408.9077 272.747,409.9744 Q273.4318,411.041 274.7765,411.041 Q275.4074,411.041 276.0009,410.7712 Q276.5944,410.5015 277.2252,409.9204 Z "/><text fill="#000000" font-family="sans-serif" font-size="12" lengthAdjust="spacingAndGlyphs" textLength="17" x="292.5521" y="411.5352">Bla</text><line style="stroke: #A80036; stroke-width: 1.5;" x1="240.9021" x2="330.9021" y1="423" y2="423"/><rect fill="none" height="6" style="stroke: #C82930; stroke-width: 1.0;" width="6" x="247.9021" y="431.9775"/><text fill="#000000" font-family="sans-serif" font-size="11" lengthAdjust="spacingAndGlyphs" textLength="66" x="259.9021" y="437.6348">seq: Seq[Int]</text><line style="stroke: #A80036; stroke-width: 1.5;" x1="240.9021" x2="330.9021" y1="443.9551" y2="443.9551"/><!--class test.bla.AbstractBla--><rect fill="#FEFECE" filter="url(#f1p745t610q9nw)" height="48" id="test.bla.AbstractBla" style="stroke: #A80036; stroke-width: 1.5;" width="97" x="277.4021" y="250.5"/><ellipse cx="292.4021" cy="266.5" fill="#ADD1B2" rx="11" ry="11" style="stroke: #A80036; stroke-width: 1.0;"/><path d="M295.3752,272.1431 Q294.7942,272.4419 294.155,272.5913 Q293.5159,272.7407 292.8103,272.7407 Q290.3035,272.7407 288.9836,271.0889 Q287.6638,269.437 287.6638,266.3159 Q287.6638,263.1865 288.9836,261.5347 Q290.3035,259.8828 292.8103,259.8828 Q293.5159,259.8828 294.1633,260.0322 Q294.8108,260.1816 295.3752,260.4805 L295.3752,263.2031 Q294.7444,262.6221 294.1509,262.3523 Q293.5574,262.0825 292.9265,262.0825 Q291.5818,262.0825 290.897,263.1492 Q290.2122,264.2158 290.2122,266.3159 Q290.2122,268.4077 290.897,269.4744 Q291.5818,270.541 292.9265,270.541 Q293.5574,270.541 294.1509,270.2712 Q294.7444,270.0015 295.3752,269.4204 Z "/><text fill="#000000" font-family="sans-serif" font-size="12" lengthAdjust="spacingAndGlyphs" textLength="65" x="306.4021" y="271.0352">AbstractBla</text><line style="stroke: #A80036; stroke-width: 1.5;" x1="278.4021" x2="373.4021" y1="282.5" y2="282.5"/><line style="stroke: #A80036; stroke-width: 1.5;" x1="278.4021" x2="373.4021" y1="290.5" y2="290.5"/><!--link test.bla.SomeTrait to test.foo.Foo--><path d="M235.3025,171.7942 C219.4203,186.5695 201.9744,202.7994 185.7342,217.9077 " fill="none" id="test.bla.SomeTrait-test.foo.Foo" style="stroke: #A80036; stroke-width: 1.0;"/><polygon fill="none" points="230.5491,166.6556,249.9602,158.1581,240.0849,176.9059,230.5491,166.6556" style="stroke: #A80036; stroke-width: 1.0;"/><!--link test.foo.Example to test.foo.Foo--><path d="M124.9021,171.9112 C124.9021,186.6107 124.9021,202.7418 124.9021,217.7716 " fill="none" id="test.foo.Example-test.foo.Foo" style="stroke: #A80036; stroke-width: 1.0;"/><polygon fill="none" points="117.9022,171.6941,124.9021,151.6941,131.9022,171.6941,117.9022,171.6941" style="stroke: #A80036; stroke-width: 1.0;"/><!--link test.bla.AbstractBla to test.bla.Bla--><path d="M314.0248,318.1491 C307.6635,341.5271 299.9814,369.7589 294.2547,390.8042 " fill="none" id="test.bla.AbstractBla-test.bla.Bla" style="stroke: #A80036; stroke-width: 1.0;"/><polygon fill="none" points="307.2912,316.2344,319.297,298.7741,320.8001,319.9103,307.2912,316.2344" style="stroke: #A80036; stroke-width: 1.0;"/><!--link test.bla.SomeTrait to test.bla.Bla--><path d="M269.391,177.252 C265.4551,190.445 261.9309,204.5739 259.9021,218 C251.8671,271.1741 251.7248,285.8476 259.9021,339 C262.5967,356.5144 268.3312,375.411 273.7308,390.6943 " fill="none" id="test.bla.SomeTrait-test.bla.Bla" style="stroke: #A80036; stroke-width: 1.0;"/><polygon fill="none" points="262.7456,175.0512,275.5401,158.1603,276.0715,179.3433,262.7456,175.0512" style="stroke: #A80036; stroke-width: 1.0;"/><!--link test.bla.SomeTrait to test.bla.AbstractBla--><path d="M303.207,177.7306 C309.0617,202.6944 315.6289,230.6962 320.1866,250.1298 " fill="none" id="test.bla.SomeTrait-test.bla.AbstractBla" style="stroke: #A80036; stroke-width: 1.0;"/><polygon fill="none" points="296.3684,179.2281,298.6167,158.1581,309.9985,176.0314,296.3684,179.2281" style="stroke: #A80036; stroke-width: 1.0;"/><!--link test.foo to test.bla.Bla--><path d="M36.8839,139.7813 C36.7956,139.9799 36.7069,140.1798 36.6179,140.3811 C36.2616,141.1862 35.8989,142.0128 35.5305,142.8602 C34.7938,144.555 34.0343,146.3329 33.258,148.1884 C27.0473,163.0326 19.754,182.8433 14.3326,204.773 C3.4898,248.6324 0.1343,300.9679 27.9021,339 C52.4618,372.6381 166.5577,399.2243 234.5248,412.4125 " fill="none" id="test.foo-test.bla.Bla" style="stroke: #A80036; stroke-width: 1.0; stroke-dasharray: 7.0,7.0;"/><polygon fill="#A80036" points="239.7406,413.4158,231.6583,407.7876,234.8306,412.4712,230.147,415.6436,239.7406,413.4158" style="stroke: #A80036; stroke-width: 1.0;"/><!--link test.foo to test.bla.SomeTrait--><path d="M54.2219,63.3487 C54.3328,63.0356 54.4451,62.7229 54.559,62.4106 C54.7866,61.7861 55.0202,61.1633 55.2597,60.5428 C55.7388,59.3016 56.242,58.0691 56.7705,56.8485 C57.8275,54.4074 58.9855,52.0137 60.2543,49.6932 C65.3292,40.4112 72.1748,32.2999 81.4021,27 C128.4205,-0.006 153.749,5.2144 203.4021,27 C227.9472,37.7693 248.596,59.3212 263.5568,79.0744 " fill="none" id="test.foo-test.bla.SomeTrait" style="stroke: #A80036; stroke-width: 1.0; stroke-dasharray: 7.0,7.0;"/><polygon fill="#A80036" points="266.8529,83.5199,264.7059,73.9079,263.875,79.5034,258.2795,78.6725,266.8529,83.5199" style="stroke: #A80036; stroke-width: 1.0;"/><!--
@startuml
class test.foo.Foo {
  {field} -blas: List[Bla]
  {field} -foos: Map[String, List[A]]
  {method} test(): String
  {method} nothing(a: Int)
  {method} nothing(a: Int, b: String)
}
test.bla.SomeTrait <|- - test.foo.Foo
test.foo.Example <|- - test.foo.Foo
class test.foo.Example {

  {method} nothing(a: Int)
}

class test.bla.Bla {
  {field} -seq: Seq[Int]

}
test.bla.AbstractBla <|- - test.bla.Bla
test.bla.SomeTrait <|- - test.bla.Bla
class test.bla.AbstractBla {


}
test.bla.SomeTrait <|- - test.bla.AbstractBla
class test.bla.SomeTrait {
  {field} -bla: Int
  {method} blubber(): String
}

test.foo ..> test.bla.Bla
test.foo ..> test.bla.SomeTrait
@enduml

PlantUML version 1.2017.13(Wed May 10 18:52:33 CEST 2017)
(GPL source distribution)
Java Runtime: Java(TM) SE Runtime Environment
JVM: Java HotSpot(TM) 64-Bit Server VM
Java Version: 1.8.0_121-b13
Operating System: Mac OS X
OS Version: 10.12.5
Default Encoding: UTF-8
Language: de
Country: DE
--></g></svg>