<?xml version="1.0" encoding="UTF-8" standalone="no"?><svg xmlns="http://www.w3.org/2000/svg" xmlns:xlink="http://www.w3.org/1999/xlink" contentScriptType="application/ecmascript" contentStyleType="text/css" height="153px" preserveAspectRatio="none" style="width:95px;height:153px;" version="1.1" viewBox="0 0 95 153" width="95px" zoomAndPan="magnify"><defs><filter height="300%" id="f1wxcp9efyubvh" width="300%" x="-1" y="-1"><feGaussianBlur result="blurOut" stdDeviation="2.0"/><feColorMatrix in="blurOut" result="blurOut2" type="matrix" values="0 0 0 0 0 0 0 0 0 0 0 0 0 0 0 0 0 0 .4 0"/><feOffset dx="4.0" dy="4.0" in="blurOut2" result="blurOut3"/><feBlend in="SourceGraphic" in2="blurOut3" mode="normal"/></filter></defs><g><!--entity test.foo--><polygon fill="#FEFECE" filter="url(#f1wxcp9efyubvh)" points="6,8,64,8,71,30.4883,88,30.4883,88,47.4883,6,47.4883,6,8" style="stroke: #000000; stroke-width: 1.5;"/><line style="stroke: #000000; stroke-width: 1.5;" x1="6" x2="71" y1="30.4883" y2="30.4883"/><text fill="#000000" font-family="sans-serif" font-size="14" lengthAdjust="spacingAndGlyphs" textLength="52" x="10" y="24.5352">test.foo</text><!--entity test.bla--><polygon fill="#FEFECE" filter="url(#f1wxcp9efyubvh)" points="7,107,63,107,70,129.4883,87,129.4883,87,146.4883,7,146.4883,7,107" style="stroke: #000000; stroke-width: 1.5;"/><line style="stroke: #000000; stroke-width: 1.5;" x1="7" x2="70" y1="129.4883" y2="129.4883"/><text fill="#000000" font-family="sans-serif" font-size="14" lengthAdjust="spacingAndGlyphs" textLength="50" x="11" y="123.5352">test.bla</text><!--link test.foo to test.bla--><path d="M47,47.0592 C47,62.7881 47,84.9776 47,101.9087 " fill="none" id="test.foo-test.bla" style="stroke: #A80036; stroke-width: 1.0; stroke-dasharray: 7.0,7.0;"/><polygon fill="#A80036" points="47,106.9814,51,97.9814,47,101.9814,43,97.9814,47,106.9814" style="stroke: #A80036; stroke-width: 1.0;"/><!--
@startuml
package test.foo
package test.bla
test.foo ..> test.bla
@enduml

PlantUML version 1.2017.13(Wed May 10 18:52:33 CEST 2017)
(GPL source distribution)
Java Runtime: Java(TM) SE Runtime Environment
JVM: Java HotSpot(TM) 64-Bit Server VM
Java Version: 1.8.0_121-b13
Operating System: Mac OS X
OS Version: 10.12.5
Default Encoding: UTF-8
Language: de
Country: DE
--></g></svg>